<svg width="22" height="18" viewBox="0 0 22 18" fill="none" xmlns="http://www.w3.org/2000/svg">
<path d="M21.0674 2.71326C21.0107 2.5762 20.9146 2.45905 20.7913 2.37662C20.6679 2.29418 20.5229 2.25016 20.3746 2.25013H17.5218C17.1229 1.57155 16.5553 1.00772 15.874 0.613451C15.1927 0.219184 14.4211 0.00789751 13.634 0.00013415C13.0476 -0.0075573 12.4656 0.10211 11.9222 0.322682C11.3788 0.543254 10.885 0.870277 10.4699 1.28451C10.0427 1.70378 9.70356 2.20424 9.47253 2.75647C9.2415 3.30869 9.1232 3.90153 9.1246 4.50013V5.07107C5.35023 4.07545 2.26304 1.00513 2.23023 0.972322C2.12961 0.87081 2.00208 0.800164 1.86265 0.768703C1.72323 0.737242 1.57771 0.746276 1.44325 0.794742C1.30879 0.843208 1.19097 0.929087 1.10368 1.04226C1.01639 1.15544 0.963259 1.29121 0.95054 1.43357C0.546478 5.91388 1.84773 8.91201 3.01304 10.6379C3.58124 11.4912 4.27246 12.2557 5.06429 12.9067C3.63648 14.5501 1.38835 15.4136 1.36398 15.4229C1.25815 15.4626 1.16264 15.5256 1.0846 15.6074C1.00656 15.6891 0.947992 15.7874 0.913285 15.895C0.878577 16.0025 0.868623 16.1165 0.884165 16.2284C0.899707 16.3404 0.940344 16.4474 1.00304 16.5414C1.07335 16.6464 1.3546 17.0148 2.04179 17.3589C2.89117 17.7845 4.01335 18.0001 5.3746 18.0001C11.9999 18.0001 17.5359 12.8983 18.1012 6.33388L20.9052 3.53076C21.0101 3.42581 21.0815 3.29213 21.1103 3.14661C21.1392 3.0011 21.1243 2.85029 21.0674 2.71326ZM16.8487 5.47045C16.7201 5.59935 16.6428 5.77062 16.6312 5.95232C16.2496 11.867 11.3071 16.5001 5.3746 16.5001C4.3846 16.5001 3.6871 16.3689 3.19773 16.2114C4.27679 15.6254 5.78148 14.6176 6.74898 13.1664C6.80576 13.081 6.84445 12.985 6.86266 12.8841C6.88087 12.7832 6.8782 12.6797 6.85483 12.5799C6.83146 12.4801 6.78788 12.3861 6.72679 12.3038C6.66569 12.2215 6.58837 12.1526 6.4996 12.1014C6.45554 12.0761 2.38304 9.63201 2.3746 3.10138C3.8746 4.32013 6.61679 6.21107 9.74992 6.73795C9.8573 6.75605 9.96733 6.75055 10.0724 6.72184C10.1774 6.69313 10.2749 6.64188 10.3582 6.57167C10.4414 6.50146 10.5084 6.41396 10.5544 6.31526C10.6004 6.21656 10.6243 6.10903 10.6246 6.00013V4.50013C10.6238 4.10006 10.703 3.70385 10.8575 3.33483C11.0121 2.96581 11.2389 2.63144 11.5246 2.35138C11.7985 2.07698 12.1246 1.86026 12.4837 1.71405C12.8428 1.56784 13.2275 1.4951 13.6152 1.50013C14.8021 1.51513 15.9112 2.23888 16.3752 3.30107C16.4337 3.43461 16.5299 3.54821 16.6519 3.62797C16.774 3.70772 16.9166 3.75018 17.0624 3.75013H18.5624L16.8487 5.47045Z" fill="#CD3C32"/>
</svg>
